<?xml version="1.0" encoding="UTF-8"?>
<svg version="1.1" xmlns="http://www.w3.org/2000/svg" width="128" height="128">
<path d="M0 0 C3.60174856 1.20058285 3.88416821 2.00054586 5.7421875 5.19140625 C6.25136719 6.05443359 6.76054688 6.91746094 7.28515625 7.80664062 C7.80980469 8.71607422 8.33445313 9.62550781 8.875 10.5625 C10.91408583 14.04318392 12.95677124 17.52174685 15 21 C15.68340454 22.18021729 15.68340454 22.18021729 16.38061523 23.38427734 C17.02172241 24.46056396 17.02172241 24.46056396 17.67578125 25.55859375 C18.04614502 26.18950928 18.41650879 26.8204248 18.7980957 27.47045898 C20.72611167 29.92404827 23.02893352 30.44724345 26 31 C27 37 27 37 27.15625 39.60546875 C28.40390529 44.62497081 31.20709479 48.42234044 34.0625 52.6875 C35.18445338 54.37488732 36.30063276 56.06613243 37.41015625 57.76171875 C37.90652588 58.50381592 38.40289551 59.24591309 38.91430664 60.01049805 C40 62 40 62 40 65 C39.03578125 65.50789063 38.0715625 66.01578125 37.078125 66.5390625 C35.80166508 67.23360687 34.52564648 67.92896274 33.25 68.625 C32.61578125 68.95628906 31.9815625 69.28757812 31.328125 69.62890625 C27.7868302 71.58399609 26.15912733 72.74934455 23.921875 76.2734375 C23.28765625 77.17320313 22.6534375 78.07296875 22 79 C19.1875 79.1171875 19.1875 79.1171875 16 79 C12.92169803 80.63010082 10.09167692 82.38847561 7.2109375 84.33203125 C4.11985862 86.27246623 2.55809489 87.1014718 -1.09375 86.4375 C-4.91946555 84.54521059 -8.56147025 82.43865723 -12.21875 80.2421875 C-15.37234913 78.833698 -17.58906806 78.93293111 -21 79 C-21.66 78.34 -22.32 77.68 -23 77 C-23 75.68 -23 74.36 -23 73 C-23.70511719 72.73445313 -24.41023438 72.46890625 -25.13671875 72.1953125 C-28.15567786 70.93501033 -30.95185076 69.46042006 -33.8125 67.875 C-34.78832031 67.33617188 -35.76414062 66.79734375 -36.76953125 66.2421875 C-37.50558594 65.83226563 -38.24164063 65.42234375 -39 65 C-36.78825665 60.27642752 -34.47110912 55.67730478 -31.6640625 51.27734375 C-31.05292603 50.30970093 -31.05292603 50.30970093 -30.42944336 49.32250977 C-29.61725443 48.04890428 -28.79041529 46.78449383 -27.94750977 45.53100586 C-24.92136601 40.76046204 -24.79074598 37.60800765 -25 32 C-23 30 -23 30 -20.6796875 29.8671875 C-16.37134167 28.47294147 -15.18786148 24.9675131 -13.125 21.125 C-12.25545508 19.57465112 -11.38435613 18.02517285 -10.51171875 16.4765625 C-10.08810059 15.71504883 -9.66448242 14.95353516 -9.22802734 14.16894531 C-2.77944992 2.77944992 -2.77944992 2.77944992 0 0 Z " fill="#B2BEE6" transform="translate(63,0)"/>
<path d="M0 0 C3.79842028 1.40886861 7.15096195 3.17119556 10.625 5.25 C15.45319487 8.10436735 20.31417381 10.86187429 25.26171875 13.50390625 C27.18328847 14.55377958 29.08027844 15.64930871 30.95703125 16.77734375 C31.91996094 17.34582031 32.88289063 17.91429688 33.875 18.5 C34.73867188 19.0259375 35.60234375 19.551875 36.4921875 20.09375 C39.83453311 21.30157583 40.81327488 20.47812474 44 19 C46.06459898 17.91635173 48.11290679 16.80137391 50.1484375 15.6640625 C50.72405426 15.34343842 51.29967102 15.02281433 51.89273071 14.69247437 C53.72172763 13.67277305 55.54836293 12.64892136 57.375 11.625 C58.5936015 10.94504629 59.81235025 10.26535641 61.03125 9.5859375 C62.21616586 8.92451504 63.40106207 8.26305737 64.5859375 7.6015625 C65.70581055 6.97668945 66.82568359 6.35181641 67.97949219 5.70800781 C70.42008389 4.3279254 72.82523649 2.9072048 75.2265625 1.4609375 C76.14179687 0.97882813 77.05703125 0.49671875 78 0 C78.99 0.495 78.99 0.495 80 1 C72.01810034 12.76528635 63.98885608 24.49224529 55.80712891 36.11962891 C51.92501847 41.64679623 48.14058511 47.22336285 44.453125 52.8828125 C43 55 43 55 41 57 C40.01 57 39.02 57 38 57 C36.32104492 55.02246094 36.32104492 55.02246094 34.48046875 52.234375 C33.79452637 51.20844238 33.10858398 50.18250977 32.40185547 49.12548828 C31.66367356 48.00036713 30.92555653 46.8752034 30.1875 45.75 C29.04259361 44.02904086 27.89402874 42.31056244 26.74523926 40.5921936 C25.96664506 39.4271008 25.18922849 38.26122019 24.41296387 37.09457397 C20.82397207 31.7072168 17.11321604 26.409746 13.375 21.125 C0 2.13366615 0 2.13366615 0 0 Z " fill="#6E86DC" transform="translate(24,71)"/>
<path d="M0 0 C0 0.99 0 1.98 0 3 C0.33 2.67 0.66 2.34 1 2 C3.23828125 1.54296875 3.23828125 1.54296875 6 2 C7.98282554 4.0838991 9.55216048 5.98442968 11.1875 8.3125 C11.84395508 9.20485352 11.84395508 9.20485352 12.51367188 10.11523438 C18.21706497 17.90842035 18.21706497 17.90842035 18.625 23.6875 C18.69976562 24.68136719 18.77453125 25.67523438 18.8515625 26.69921875 C18.90054688 27.45847656 18.94953125 28.21773437 19 29 C16.80488686 30.401264 14.59819045 31.76961427 12.375 33.125 C11.75753906 33.52332031 11.14007813 33.92164063 10.50390625 34.33203125 C7.35195567 36.2232016 5.58118005 37.09979859 1.90625 36.46875 C-1.15256131 34.92289912 -4.01230091 33.26019209 -6.875 31.375 C-7.84179688 30.74335937 -8.80859375 30.11171875 -9.8046875 29.4609375 C-10.52914062 28.97882813 -11.25359375 28.49671875 -12 28 C-11.67 26.35 -11.34 24.7 -11 23 C-12.32 22.34 -13.64 21.68 -15 21 C-15 15.72 -15 10.44 -15 5 C-4.5 0 -4.5 0 0 0 Z " fill="#DEE1F8" transform="translate(60,50)"/>
<path d="M0 0 C0.66 0.33 1.32 0.66 2 1 C-5.98207969 12.76555171 -14.00627366 24.49675014 -22.19506836 36.11962891 C-26.0707342 41.63205903 -29.82116814 47.20342508 -33.44921875 52.8828125 C-35 55 -35 55 -38 57 C-38.22329729 52.12563009 -38.38613882 47.25426039 -38.49438477 42.37597656 C-38.53951672 40.71887346 -38.60084462 39.06212631 -38.67895508 37.40625 C-39.30582465 23.77081245 -39.30582465 23.77081245 -36.34765625 19.75927734 C-33.97283052 18.13771665 -31.66165877 17.08367016 -29 16 C-27.17597111 14.99255469 -25.36102847 13.96851363 -23.5546875 12.9296875 C-21.66381045 11.90709701 -19.77055137 10.88889957 -17.875 9.875 C-15.97622603 8.85218688 -14.07778097 7.8287629 -12.1796875 6.8046875 C-11.29120117 6.32870117 -10.40271484 5.85271484 -9.48730469 5.36230469 C-7.27128385 4.14858303 -5.10883011 2.87424318 -2.9453125 1.5703125 C-1.48738281 0.79300781 -1.48738281 0.79300781 0 0 Z " fill="#C8CAF7" transform="translate(102,71)"/>
<path d="M0 0 C3.60174856 1.20058285 3.88416821 2.00054586 5.7421875 5.19140625 C6.25136719 6.05443359 6.76054688 6.91746094 7.28515625 7.80664062 C8.07212891 9.17079102 8.07212891 9.17079102 8.875 10.5625 C10.42292867 13.20478722 11.97276173 15.84590964 13.52636719 18.48486328 C14.48236484 20.11652129 15.42650309 21.75520832 16.35644531 23.40185547 C16.77764648 24.1238916 17.19884766 24.84592773 17.6328125 25.58984375 C17.9952002 26.22656006 18.35758789 26.86327637 18.73095703 27.51928711 C20.34475315 29.40225622 21.64703346 29.41700918 24 30 C24.33 30.99 24.66 31.98 25 33 C21.535 32.505 21.535 32.505 18 32 C17.32041397 34.39719432 17.32041397 34.39719432 17 37 C17.66 37.66 18.32 38.32 19 39 C19.1953125 42.0390625 19.1953125 42.0390625 19.125 45.625 C19.10695313 46.81351563 19.08890625 48.00203125 19.0703125 49.2265625 C19.04710938 50.14179687 19.02390625 51.05703125 19 52 C17.35 52 15.7 52 14 52 C14 51.34 14 50.68 14 50 C11.36 49.67 8.72 49.34 6 49 C5.896875 48.360625 5.79375 47.72125 5.6875 47.0625 C5.3471875 46.0415625 5.3471875 46.0415625 5 45 C4.01 44.67 3.02 44.34 2 44 C-0.85093754 40.29420143 -0.37017818 35.57588946 -0.44921875 31.11328125 C-0.47095657 30.25566696 -0.4926944 29.39805267 -0.51509094 28.51445007 C-0.55892189 26.7065958 -0.59814105 24.8986246 -0.63305664 23.09057617 C-0.68751061 20.31195842 -0.75764601 17.53406077 -0.83007812 14.75585938 C-0.8707147 13.00002112 -0.91045939 11.24416195 -0.94921875 9.48828125 C-0.96997971 8.65291336 -0.99074066 7.81754547 -1.01213074 6.9568634 C-1.04740116 4.97155143 -1.02924237 2.98540991 -1 1 C-0.67 0.67 -0.34 0.34 0 0 Z " fill="#D1E7F3" transform="translate(63,0)"/>
<path d="M0 0 C1.41040039 1.78833008 1.41040039 1.78833008 2.84765625 4.26953125 C3.63172852 5.60274414 3.63172852 5.60274414 4.43164062 6.96289062 C4.96982422 7.90326172 5.50800781 8.84363281 6.0625 9.8125 C7.13638715 11.65253732 8.2105926 13.49238892 9.28515625 15.33203125 C9.75832275 16.15421143 10.23148926 16.9763916 10.71899414 17.82348633 C11.75521297 19.58409065 12.866798 21.300197 14 23 C14 23.99 14 24.98 14 26 C11.71125827 27.33858524 9.41930344 28.67101014 7.125 30 C6.47402344 30.3815625 5.82304688 30.763125 5.15234375 31.15625 C0.2265625 34 0.2265625 34 -2 34 C-4.11425781 32.42089844 -4.11425781 32.42089844 -6 30 C-6.36230469 26.88378906 -6.36230469 26.88378906 -6.171875 23.265625 C-6.11386719 21.97011719 -6.05585937 20.67460938 -5.99609375 19.33984375 C-5.9145115 17.97653556 -5.83247447 16.61325451 -5.75 15.25 C-5.68169063 13.87118672 -5.61526322 12.49227883 -5.55078125 11.11328125 C-5.38569462 7.74079722 -5.20139277 4.37047907 -5 1 C-3 0 -3 0 0 0 Z " fill="#B6D9F3" transform="translate(89,39)"/>
<path d="M0 0 C4.88890883 1.22222721 6.40226908 3.4666756 9.1875 7.375 C9.63657715 7.99971191 10.0856543 8.62442383 10.54833984 9.26806641 C14.20142527 14.66463868 15.45556067 19.43456686 15 26 C12.6889639 27.33592797 10.37628245 28.66884431 8.0625 30 C7.40314453 30.3815625 6.74378906 30.763125 6.06445312 31.15625 C1.11328125 34 1.11328125 34 0 34 C0 22.78 0 11.56 0 0 Z " fill="#EEF2F4" transform="translate(64,53)"/>
<path d="M0 0 C0 5.28 0 10.56 0 16 C1.65 16.66 3.3 17.32 5 18 C4.49396008 20.16874252 4.00016187 21.99967627 3 24 C0.125 24.125 0.125 24.125 -3 24 C-3.66 23.34 -4.32 22.68 -5 22 C-5 20.68 -5 19.36 -5 18 C-5.70511719 17.73445313 -6.41023438 17.46890625 -7.13671875 17.1953125 C-10.15567786 15.93501033 -12.95185076 14.46042006 -15.8125 12.875 C-17.27623047 12.06675781 -17.27623047 12.06675781 -18.76953125 11.2421875 C-19.50558594 10.83226563 -20.24164062 10.42234375 -21 10 C-19.67841058 7.35682116 -18.48559419 7.17409045 -15.78125 6.0546875 C-14.93175781 5.70019531 -14.08226562 5.34570312 -13.20703125 4.98046875 C-12.31371094 4.61566406 -11.42039062 4.25085937 -10.5 3.875 C-9.60667969 3.50246094 -8.71335937 3.12992188 -7.79296875 2.74609375 C-1.16411973 0 -1.16411973 0 0 0 Z " fill="#D4D0F9" transform="translate(45,55)"/>
<path d="M0 0 C1.5625 1.125 1.5625 1.125 3 3 C2.6875 6.1875 2.6875 6.1875 2 9 C0.35 9.33 -1.3 9.66 -3 10 C-2.99476318 10.6297876 -2.98952637 11.2595752 -2.98413086 11.90844727 C-2.96319862 14.79312115 -2.9502885 17.67777898 -2.9375 20.5625 C-2.92912109 21.55314453 -2.92074219 22.54378906 -2.91210938 23.56445312 C-2.89463086 28.82548699 -3.07691602 33.81764665 -4 39 C-3.360625 39.2475 -2.72125 39.495 -2.0625 39.75 C0 41 0 41 0.9375 42.875 C1 45 1 45 -0.125 47.25 C-2 49 -2 49 -4.5625 49.4375 C-5.366875 49.293125 -6.17125 49.14875 -7 49 C-8.90382301 46.14426549 -9.2957965 45.21887862 -9.625 42 C-9.69976562 41.319375 -9.77453125 40.63875 -9.8515625 39.9375 C-9.97734294 38.29573423 -10 36.64657692 -10 35 C-8.68 35.99 -7.36 36.98 -6 38 C-6 33.71 -6 29.42 -6 25 C-7.32 24.34 -8.64 23.68 -10 23 C-10 22.67 -10 22.34 -10 22 C-8.35 22 -6.7 22 -5 22 C-5.11376617 19.87436897 -5.24135631 17.7494739 -5.375 15.625 C-5.44460937 14.44164062 -5.51421875 13.25828125 -5.5859375 12.0390625 C-5.70217346 8.89437681 -5.70217346 8.89437681 -8 7 C-7.75 4.4375 -7.75 4.4375 -7 2 C-4.3333581 0.66667905 -2.83319697 1.32897967 0 2 C0 1.34 0 0.68 0 0 Z " fill="#BAC5E4" transform="translate(87,30)"/>
<path d="M0 0 C6.45611974 2.08843282 12.81888753 4.19040342 19 7 C19 7.66 19 8.32 19 9 C16.71125827 10.33858524 14.41930344 11.67101014 12.125 13 C11.47402344 13.3815625 10.82304688 13.763125 10.15234375 14.15625 C5.2265625 17 5.2265625 17 3 17 C0.859375 15.421875 0.859375 15.421875 -1 13 C-1.171875 9.765625 -1.171875 9.765625 -0.75 6.25 C-0.55664062 4.49429688 -0.55664062 4.49429688 -0.359375 2.703125 C-0.24078125 1.81109375 -0.1221875 0.9190625 0 0 Z " fill="#F6F9F9" transform="translate(84,56)"/>
<path d="M0 0 C-0.93659711 4.49566613 -2.09312604 7.35708207 -5 10.9375 C-8.14104231 14.85231126 -9.12270367 18.08714056 -10 23 C-12.475 22.01 -12.475 22.01 -15 21 C-15 15.72 -15 10.44 -15 5 C-4.5 0 -4.5 0 0 0 Z " fill="#D6D9F7" transform="translate(60,50)"/>
<path d="M0 0 C1.890625 0.234375 1.890625 0.234375 4.25 0.75 C5.01828125 0.90984375 5.7865625 1.0696875 6.578125 1.234375 C9.53022032 2.16761804 11.59930468 3.0127812 14 5 C14.48828125 8.13671875 14.48828125 8.13671875 14.3125 11.6875 C14.26738281 12.86699219 14.22226563 14.04648438 14.17578125 15.26171875 C14.11777344 16.16535156 14.05976562 17.06898437 14 18 C13.01 18 12.02 18 11 18 C6.18107826 13.0668858 2.49746398 6.9150658 -1 1 C-0.67 0.67 -0.34 0.34 0 0 Z " fill="#EFF5F7" transform="translate(68,50)"/>
<path d="M0 0 C0.33 0 0.66 0 1 0 C1 3.63 1 7.26 1 11 C3.475 11.99 3.475 11.99 6 13 C5.49396008 15.16874252 5.00016187 16.99967627 4 19 C1.125 19.125 1.125 19.125 -2 19 C-2.66 18.34 -3.32 17.68 -4 17 C-4 15.68 -4 14.36 -4 13 C-4.66 12.67 -5.32 12.34 -6 12 C-5.195625 11.690625 -4.39125 11.38125 -3.5625 11.0625 C-0.83888394 9.29423085 -0.83888394 9.29423085 -0.4453125 6.796875 C-0.20962327 4.52568784 -0.05263436 2.28241731 0 0 Z " fill="#ABB3E5" transform="translate(44,60)"/>
<path d="M0 0 C2.64 0.33 5.28 0.66 8 1 C8.09152344 1.70898438 8.18304688 2.41796875 8.27734375 3.1484375 C9.13482171 6.53199917 10.60050221 8.74740325 12.5625 11.625 C16 16.67404427 16 16.67404427 16 20 C15.40832031 19.13375 14.81664063 18.2675 14.20703125 17.375 C13.40972098 16.2493855 12.61149574 15.12441872 11.8125 14 C11.23145508 13.14148438 11.23145508 13.14148438 10.63867188 12.265625 C8.1924773 8.83760058 8.1924773 8.83760058 4.32421875 7.5625 C1.9863129 7.89266098 1.9863129 7.89266098 0 9 C0 6.03 0 3.06 0 0 Z " fill="#B0BADF" transform="translate(59,45)"/>
<path d="M0 0 C1.5625 1.125 1.5625 1.125 3 3 C2.6875 6.1875 2.6875 6.1875 2 9 C-4.41194487 10.33078101 -4.41194487 10.33078101 -7 8.875 C-8 7 -8 7 -7.8125 4.375 C-7 2 -7 2 -5 1 C-3.32345271 1.27942455 -1.65391846 1.60828247 0 2 C0 1.34 0 0.68 0 0 Z " fill="#8C9FDA" transform="translate(87,30)"/>
<path d="M0 0 C3.55780196 0.60990891 6.6828589 1.5783681 10 3 C8.8125 5.5 8.8125 5.5 7 8 C4.4375 8.5 4.4375 8.5 2 8 C-0.1519437 4.77208445 -0.20086443 3.71599191 0 0 Z " fill="#97A8DF" transform="translate(78,71)"/>
<path d="M0 0 C0.66 0.33 1.32 0.66 2 1 C2 1.66 2 2.32 2 3 C3.32 3.33 4.64 3.66 6 4 C6 5.32 6 6.64 6 8 C6.99 7.67 7.98 7.34 9 7 C11.6875 7.9375 11.6875 7.9375 14 9 C14 9.66 14 10.32 14 11 C10.87709365 10.51421457 8.00419641 10.0013988 5 9 C4.67 8.01 4.34 7.02 4 6 C2.1346755 4.98245132 2.1346755 4.98245132 -0.0625 4.3125 C-0.79597656 4.06113281 -1.52945313 3.80976562 -2.28515625 3.55078125 C-2.85105469 3.36902344 -3.41695312 3.18726563 -4 3 C-2.68 2.01 -1.36 1.02 0 0 Z " fill="#BAD1ED" transform="translate(63,41)"/>
<path d="M0 0 C1.485 0.99 1.485 0.99 3 2 C4.65549531 2.38499891 6.3222433 2.72793135 8 3 C7.67 4.32 7.34 5.64 7 7 C5.02 7 3.04 7 1 7 C0.67 4.69 0.34 2.38 0 0 Z " fill="#8998D8" transform="translate(38,33)"/>
<path d="M0 0 C1.5 1.3125 1.5 1.3125 3 3 C3 3.99 3 4.98 3 6 C1.02 6 -0.96 6 -3 6 C-3 5.34 -3 4.68 -3 4 C-4.32 4 -5.64 4 -7 4 C-7.33 4.99 -7.66 5.98 -8 7 C-7.625 4.5625 -7.625 4.5625 -7 2 C-4.3333581 0.66667905 -2.83319697 1.32897967 0 2 C0 1.34 0 0.68 0 0 Z " fill="#AFB9E8" transform="translate(87,30)"/>
<path d="M0 0 C0.66 0 1.32 0 2 0 C2 0.66 2 1.32 2 2 C4.97 2.495 4.97 2.495 8 3 C8 3.99 8 4.98 8 6 C5.125 6.125 5.125 6.125 2 6 C1.34 5.34 0.68 4.68 0 4 C0 2.68 0 1.36 0 0 Z " fill="#7F94D4" transform="translate(40,73)"/>
<path d="M0 0 C4.67692308 1.47692308 4.67692308 1.47692308 6.3125 4.125 C6.539375 4.74375 6.76625 5.3625 7 6 C4.69 6.66 2.38 7.32 0 8 C0 5.36 0 2.72 0 0 Z " fill="#8EA1D6" transform="translate(59,46)"/>
<path d="M0 0 C1.67542976 0.28604898 3.34385343 0.61781233 5 1 C5 1.66 5 2.32 5 3 C6.32 3.33 7.64 3.66 9 4 C8.34 5.32 7.68 6.64 7 8 C7 7.01 7 6.02 7 5 C5.8553125 5.12375 5.8553125 5.12375 4.6875 5.25 C2 5 2 5 0.1875 3 C-0.4003125 2.01 -0.4003125 2.01 -1 1 C-0.67 0.67 -0.34 0.34 0 0 Z " fill="#A7B3E6" transform="translate(39,31)"/>
<path d="M0 0 C0.33 0 0.66 0 1 0 C1 4.95 1 9.9 1 15 C-0.98 14.34 -2.96 13.68 -5 13 C-5 12.67 -5 12.34 -5 12 C-3.35 12 -1.7 12 0 12 C0 8.04 0 4.08 0 0 Z " fill="#BAD7F3" transform="translate(82,40)"/>
<path d="M0 0 C2.64 0.33 5.28 0.66 8 1 C7.01 2.485 7.01 2.485 6 4 C3.375 4.1875 3.375 4.1875 1 4 C0.67 2.68 0.34 1.36 0 0 Z " fill="#7D93D1" transform="translate(79,75)"/>
<path d="M0 0 C0.33 0.66 0.66 1.32 1 2 C0.0625 4.125 0.0625 4.125 -1 6 C-2.32 5.34 -3.64 4.68 -5 4 C-5 3.34 -5 2.68 -5 2 C-3.35 1.34 -1.7 0.68 0 0 Z " fill="#CDD1F5" transform="translate(50,67)"/>
</svg>
