<svg width="100" height="100" viewBox="0 0 100 100" fill="none" xmlns="http://www.w3.org/2000/svg">
<rect width="100" height="100" fill="black"/>
<g clip-path="url(#clip0_8567_19357)">
<path fill-rule="evenodd" clip-rule="evenodd" d="M90.924 54.3389C90.924 54.7268 90.8341 55.0954 90.6635 55.4154L73.115 85.7587C72.3707 87.0456 70.9953 87.8383 69.5069 87.8383H30.5118C29.0233 87.8383 27.6479 87.0456 26.9037 85.7587L9.3535 55.4125C9.18345 55.0931 9.09467 54.7262 9.09467 54.3389C9.09467 53.083 10.1145 52.0649 11.3726 52.0649H30.6266L35.5061 60.339L35.5361 60.3884C36.1873 61.4321 37.5573 61.7723 38.6248 61.1449L38.68 61.1114C39.1722 60.803 39.5285 60.3179 39.6744 59.7548L45.8919 35.7599L51.2306 74.3902L51.2387 74.4441C51.4359 75.6594 52.5703 76.5013 53.7985 76.3321L53.8543 76.3238C54.7435 76.1789 55.4659 75.5232 55.6925 74.649L63.1868 45.7266L66.264 50.9446L66.2945 50.9949C66.7098 51.6593 67.4397 52.0649 68.2269 52.0649H88.6461C89.9041 52.0649 90.924 53.083 90.924 54.3389ZM69.5069 12.0933C70.9953 12.0933 72.3707 12.886 73.115 14.1729L90.6646 44.5176C90.8343 44.8372 90.924 45.2057 90.924 45.5926C90.924 46.8486 89.9041 47.8667 88.6461 47.8667H69.3289L64.4495 39.5926L64.4159 39.5375C64.107 39.0461 63.6211 38.6904 63.0569 38.5448L63.004 38.5317C61.8032 38.2515 60.5917 38.9785 60.2812 40.1768L54.0635 64.1715L48.725 25.5413L48.7166 25.4856C48.5715 24.5979 47.9146 23.8767 47.0389 23.6506C45.821 23.336 44.5782 24.0667 44.2631 25.2826L36.7686 54.2048L33.6916 48.987L33.6611 48.9367C33.2458 48.2723 32.5159 47.8667 31.7286 47.8667H11.3726C10.1145 47.8667 9.09467 46.8486 9.09467 45.5926C9.09467 45.2086 9.18107 44.8454 9.34799 44.528L26.9037 14.1729C27.6479 12.886 29.0233 12.0933 30.5118 12.0933H69.5069Z" fill="url(#paint0_linear_8567_19357)"/>
</g>
<defs>
<linearGradient id="paint0_linear_8567_19357" x1="71.2469" y1="12.4469" x2="34.9257" y2="89.6126" gradientUnits="userSpaceOnUse">
<stop stop-color="#00EAFF"/>
<stop offset="0.252531" stop-color="#0080FF"/>
<stop offset="0.497394" stop-color="#8000FF"/>
<stop offset="0.749912" stop-color="#E619E6"/>
<stop offset="0.999136" stop-color="#FF0000"/>
</linearGradient>
<clipPath id="clip0_8567_19357">
<rect width="82" height="76" fill="white" transform="translate(9 12)"/>
</clipPath>
</defs>
</svg>
