<svg width="100" height="100" viewBox="0 0 100 100" fill="none" xmlns="http://www.w3.org/2000/svg">
<rect width="100" height="100" fill="#F2E4CB"/>
<g clip-path="url(#clip0_8567_19410)">
<path fill-rule="evenodd" clip-rule="evenodd" d="M49.9033 88C61.1919 88 71.334 83.1025 78.3102 75.3214C75.065 72.5083 70.1745 72.3374 66.7197 75.1179L66.0597 75.6492C59.7342 80.7403 50.517 79.9885 45.1048 73.9399C42.1529 70.641 37.0974 70.3041 33.732 73.182L26.1224 79.6893C32.6399 84.8901 40.9075 88 49.9033 88ZM62.2553 69.5993C68.2803 64.7499 76.7489 64.9239 82.5436 69.6074C86.0072 63.883 88 57.1736 88 50.0001C88 42.0289 85.5395 34.631 81.3347 28.5209C78.624 27.9451 75.6858 28.6176 73.4556 30.589L72.8207 31.1501C66.7374 36.5271 57.4954 36.2003 51.809 30.4073C48.7078 27.2478 43.642 27.1441 40.4132 30.1739L31.5579 38.4838L26.6864 33.319L35.5418 25.0091C41.59 19.3333 51.0794 19.5277 56.889 25.4463C59.9245 28.5388 64.8582 28.7132 68.1056 25.8428L68.7405 25.2817C70.7118 23.5393 72.9923 22.3647 75.3804 21.7469C68.6308 15.6876 59.6987 12 49.9033 12C30.5637 12 14.59 26.3737 12.1338 44.9952C18.008 42.1834 25.2537 43.2654 30.0432 48.1577C33.0669 51.2461 37.9355 51.5721 41.3458 48.9145L46.297 45.0562C52.5197 40.2073 61.3158 40.442 67.2696 45.6158L76.9091 53.9929L72.239 59.3395L62.5995 50.9627C59.2142 48.0205 54.2123 47.887 50.674 50.6443L45.7228 54.5027C39.4569 59.3853 30.512 58.7864 24.9568 53.112C21.7264 49.8124 16.4432 49.6972 13.0714 52.8531L12 53.8559C12.8018 61.7926 16.0522 69.0088 20.9862 74.741L29.1047 67.7985C35.4091 62.4072 44.8793 63.0382 50.4089 69.2179C53.2981 72.447 58.2185 72.8482 61.5951 70.1304L62.2553 69.5993Z" fill="#9D201A"/>
</g>
<defs>
<clipPath id="clip0_8567_19410">
<rect width="76" height="76" fill="white" transform="translate(12 12)"/>
</clipPath>
</defs>
</svg>
