<svg width="100" height="100" viewBox="0 0 100 100" fill="none" xmlns="http://www.w3.org/2000/svg">
<rect width="100" height="100" fill="url(#paint0_linear_5845_1120)"/>
<mask id="mask0_5845_1120" style="mask-type:luminance" maskUnits="userSpaceOnUse" x="12" y="12" width="76" height="76">
<path d="M88 12H12V88H88V12Z" fill="white"/>
</mask>
<g mask="url(#mask0_5845_1120)">
<path d="M57.7405 59.2154L57.7497 59.2092C57.7497 59.2092 57.7405 59.2154 57.7344 59.2184C57.7374 59.2184 57.7405 59.2184 57.7436 59.2184L57.7405 59.2154Z" fill="white"/>
<path d="M57.7346 59.2174C43.3896 63.5261 31.5269 69.8114 24.0955 77.1724L23.7676 77.5003C25.7442 79.3697 27.9108 81.0429 30.2521 82.4648L30.7547 81.8489C32.7834 79.3697 34.9592 76.9763 37.2239 74.7208C43.3007 68.6653 50.251 63.425 57.7346 59.2174Z" fill="white"/>
<path d="M59.3921 52.8311H12.0361C12.6092 60.5138 15.4622 67.5591 19.9395 73.2898L20.1448 73.0844C24.7447 68.5459 30.7327 64.4211 37.9558 60.8264C44.2871 57.673 51.5561 54.967 59.3921 52.8311Z" fill="white"/>
<path d="M41.2385 21.2548C54.0757 34.0461 70.2318 42.5042 87.9539 45.7127C85.8179 26.7495 69.6771 12 50.0642 12C44.8852 12 39.9483 13.0327 35.4404 14.896C37.2699 17.0994 39.2251 19.2445 41.2385 21.2579V21.2548Z" fill="white"/>
<path d="M24.0953 22.8211C31.5268 30.1943 43.3956 36.4704 57.7437 40.7884C50.254 36.5716 43.2975 31.3343 37.2176 25.2758C34.9591 23.0264 32.7863 20.633 30.7484 18.1477L30.2458 17.5317C27.9045 18.9537 25.7379 20.6238 23.7705 22.4932L24.0984 22.8211H24.0953Z" fill="white"/>
<path d="M41.2385 78.7387C39.2159 80.7521 37.2638 82.8972 35.4404 85.1006C39.9422 86.9639 44.8852 87.9966 50.0642 87.9966C69.6771 87.9966 85.8179 73.244 87.96 54.2747C70.241 57.4832 54.0849 65.9413 41.2446 78.7326L41.2385 78.7387Z" fill="white"/>
<path d="M37.9466 39.1579V39.1641C30.7297 35.5694 24.7447 31.4415 20.1448 26.9091L19.9395 26.7037C15.4622 32.4344 12.6092 39.4797 12.0361 47.1623H59.3829C51.55 45.0263 44.2871 42.3205 37.9466 39.1579Z" fill="white"/>
</g>
<defs>
<linearGradient id="paint0_linear_5845_1120" x1="50" y1="0" x2="50" y2="100" gradientUnits="userSpaceOnUse">
<stop/>
<stop offset="1" stop-color="#804B2C"/>
</linearGradient>
</defs>
</svg>
